<?xml version="1.0" encoding="UTF-8"?>
<!DOCTYPE svg PUBLIC "-//W3C//DTD SVG 1.1//EN" "http://www.w3.org/Graphics/SVG/1.1/DTD/svg11.dtd">
<svg width="128px" height="128px" version="1.1" xmlns="http://www.w3.org/2000/svg">
<path d="M 40 8 H 88 V 128 H 80 V 104 H 48 V 128 H 40 V 96 H 32 V 64 H 40" fill="#6EA9E0"/>
<path d="M 40 16 H 88 V 24 H 40" fill="#507699"/>
<path d="M 48 24 H 88 V 48 H 48" fill="#f6d978"/>
<path d="M 48 32 H 56 V 40 H 48" fill="#fefefe"/>
<path d="M 56 32 H 64 V 40 H 56" fill="#000000"/>
<path d="M 64 32 H 72 V 40 H 64" fill="#c1aa60"/>
<path d="M 72 32 H 80 V 40 H 72" fill="#fefefe"/>
<path d="M 80 32 H 88 V 40 H 80" fill="#000000"/>
<path d="M 40 56 H 48 V 64 H 40" fill="#5b8cba"/>
<path d="M 48 56 H 88 V 64 H 48" fill="#507699"/>
<path d="M 32 80 H 40 V 88 H 32" fill="#15222e"/>
<path d="M 32 88 H 40 V 96 H 32" fill="#f6d978"/>
<path d="M 40 72 H 48 V 88 H 40" fill="#5b8cba"/>
<path d="M 80 72 H 88 V 88 H 80" fill="#5b8cba"/>
<path d="M 40 88 H 88 V 96 H 40" fill="#15222e"/>
<path d="M 40 112 H 48 V 120 H 40" fill="#5b8cba"/>
<path d="M 40 120 H 48 V 128 H 40" fill="#15222e"/>
<path d="M 80 112 H 88 V 120 H 80" fill="#5b8cba"/>
<path d="M 80 120 H 88 V 128 H 80" fill="#15222e"/>
</svg>