<?xml version="1.0" encoding="utf-8"?>
<!-- Generator: Adobe Illustrator 18.1.1, SVG Export Plug-In . SVG Version: 6.00 Build 0)  -->
<svg version="1.1" id="Layer_1" xmlns="http://www.w3.org/2000/svg" xmlns:xlink="http://www.w3.org/1999/xlink" x="0px" y="0px"
	 viewBox="0 0 320 320" enable-background="new 0 0 320 320" xml:space="preserve">
<path fill="#3D3D3D" d="M160,0C71.6,0,0,71.6,0,160s71.6,160,160,160s160-71.6,160-160S248.4,0,160,0z M136.6,89.3
	c5.2,4.7,9.3,10.6,13.5,16.3c2.6,3.5,3.3,6.7-1.2,10.2c-3.4,2.7-7.3-1.8-8.9-4.2c-11.2-17.7-27.2-26.3-47.8-24.1
	c-17.9,2-31,12.2-39.5,29.6c-4-1.8-7.1-3.2-10.1-4.5C55.7,75.3,107.1,62.9,136.6,89.3z M149.4,216.5c-13.7,20.9-37.6,31.8-62.8,27.2
	c-23.7-4.3-44-23.8-48.4-47.3c-0.7-3.7-3.9-10.1,3.2-12.2c4.9-1.4,7.2,0.8,8.4,7c4.4,21.8,19,36.6,38.3,40.3
	c31.8,6.1,58.1-16.8,58.2-49.2c0-3.8-0.1-7.7-0.2-12c0-2.2-1.9-4-4.1-3.9c-5.1,0.2-9.8,0.4-14.3-0.4c-1.8-0.3-3.3-1.9-4.9-3.6
	c-1.4-1.6-1.3-4,0.2-5.5c1.5-1.4,3-2.7,4.6-2.9c7.6-0.8,15.4-0.8,23,0c2.7,0.3,8,2.7,7.5,9.6C158.6,183.1,161,198.7,149.4,216.5z
	 M260.7,240.6c-7.1,1.9-10.2-8.6-3.3-11.2c0.3-0.1,0.5-0.2,0.8-0.3c14.6-4.9,17.4-23,5.5-33.7c-20.2-18.2-40.8-35.9-61.1-54
	c-5.2-4.7-10.7-9.6-14.2-15.5c-11.9-20.3,2-45.4,25.6-46.2c20.7-0.7,41.4-0.4,62,0c0.6,0,1.2,0.2,1.8,0.5c4.1,2.1,4,8.2-0.2,10.2
	c-0.7,0.3-1.3,0.5-2,0.5c-18.9,0.5-37.8,0.2-56.7,0.3c-12.2,0-18.6,3.9-21.8,13c-3.1,8.9-0.6,16.3,8.4,24.1
	c22.4,19.8,44.8,39.5,67,59.3c10.2,9.1,13.4,23,8.3,34.7C276.9,231.5,269.3,238.2,260.7,240.6z"/>
</svg>
