<?xml version="1.0" encoding="UTF-8"?>
<!DOCTYPE svg PUBLIC "-//W3C//DTD SVG 1.1//EN" "http://www.w3.org/Graphics/SVG/1.1/DTD/svg11.dtd">
<svg width="128px" height="128px" version="1.1" xmlns="http://www.w3.org/2000/svg">
<path d="M 16 16 H 112 V 112 H 16" fill="#f7941e" />
<path d="M 0 0 H 32 L 64 16 L 16 64 L 0 32" fill="#fdb813"/>
<path d="M 16 64 L 64 112 L 32 128 H 0 V 96" fill="#faa61a"/>
<path d="M 64 16 L 96 0 H 128 V 32 L 112 64" fill="#f58220"/>
<path d="M 112 64 L 128 96 V 128 H 96 L 64 112" fill="#f36f21"/>
<path d="M 0 0 L 16 64 L 0 128 V 96 L 16 64 L 0 32" fill="#fff200"/>
<path d="M 0 0 L 64 16 L 128 0 H 96 L 64 16 L 32 0" fill="#ffcb08"/>
<path d="M 128 0 V 32 L 112 64 L 128 96 V 128 L 112 64" fill="#f15922"/>
<path d="M 0 128 H 32 L 64 112 L 96 128 H 128 L 64 112" fill="#F68B2D"/>
</svg>