<?xml version="1.0" encoding="UTF-8"?>
<!DOCTYPE svg PUBLIC "-//W3C//DTD SVG 1.1//EN" "http://www.w3.org/Graphics/SVG/1.1/DTD/svg11.dtd">
<svg width="128px" height="128px" version="1.1" xmlns="http://www.w3.org/2000/svg">
<!-- White for DB lettering -->
<path d="M  z" fill="#ffffff" />
<!-- Controller BG -->
<path d="
	M 71.959 94.56c-3.432-1.392-6.259-6.114-7.496-12.523-0.144-0.744-0.278-1.436-0.299-1.538-0.021-0.101-0.095-0.185-0.165-0.185-0.07 0-1.112-0.11-2.315-0.244-3.938-0.439-4.995-0.508-8.515-0.553-3.536-0.045-4.932 0.012-7.583 0.309-11.881 1.33-23.301 6.392-31.601 14.006-0.451 0.414-0.861 0.743-0.911 0.731-0.137-0.032-5.116-5.238-5.116-5.349 0-0.188 2.58-2.362 4.384-3.693 5.452-4.024 12.657-7.516 19.684-9.54 4.322-1.245 8.096-1.944 12.997-2.408 1.48-0.14 8.385-0.141 10.004-0.001 2.631 0.227 5.382 0.552 8.316 0.981l0.321 0.047-0.056-1.222C63.484 70.713 62.401 64.98 61.677 63.156 60.52 60.243 58.614 57.905 56.377 56.654 50.984 53.778 38.409 61.89 33.898 59.802 32.755 59.403 32.284 59.096 31.682 58.74 31.23 58.473 30.181 57.504 30.181 57.354c0-0.04-0.093-0.21-0.207-0.378-0.534-0.786-0.727-2.4-0.424-3.54 0.447-1.682 1.296-2.991 3.126-4.816 1.92-1.915 4.39-3.882 7.591-6.045 8-5.406 16.376-9.029 24.067-10.41 4.578-0.785 9.554-0.527 13.956 0.145 3.058 0.502 5.885 1.438 7.79 2.579 0.398 0.238 1.263 0.833 1.922 1.322l1.199 0.889 0.851-0.4c1.445-0.68 2.543-0.96 2.935-0.75 0.08 0.043 0.21 0.246 0.288 0.451 0.078 0.205 0.164 0.373 0.19 0.373 0.026 0 0.528-0.206 1.115-0.457 6.258-2.68 12.746-3.171 18.822-1.423 3.232 0.93 5.906 2.424 7.954 4.444 2.96 2.919 4.977 6.781 6.051 11.582 0.615 3.313 0.785 4.754 0.152 8.484-0.77 4.557-2.914 8.821-6.014 11.96-3.38 3.422-7.628 5.8-13.272 7.429-4.27 1.233-11.683 2.501-17.042 2.916-0.631 0.049-1.341 0.109-1.576 0.134l-0.428 0.045-1.038 1.573c-3.56 5.394-7.482 9.398-10.574 10.796-1.191 0.538-1.41 0.577-3.269 0.575L72.616 94.828 z 
	M 93.623 76.829c4.693-0.378 9.97-1.171 13.362-2.008 4.783-1.181 7.822-2.634 11.06-5.291 3.323-2.726 5.522-6.567 6.408-11.191 0.286-1.493 0.362-4.342 0.157-5.904-0.873-6.653-4.295-11.908-9.436-14.493-1.648-0.829-4.893-1.693-7.327-1.951-4.038-0.429-8.556 0.224-12.639 1.825-0.519 0.203-0.949 0.375-0.957 0.381-0.007 0.007 0.041 0.214 0.108 0.462 0.232 0.857 0.053 1.782-0.518 2.687-0.15 0.238-0.273 0.451-0.273 0.474 0 0.023 0.199 0.327 0.442 0.675 2.412 3.455 3.961 7.358 4.32 10.883 0.505 4.965-1.87 14.102-5.814 22.366-0.317 0.665-0.546 1.21-0.507 1.21 0.039 0 0.765-0.056 1.614-0.124 z " fill="#000000" />
<g transform="matrix(2.9,-0.7,0.7,2.9,1.5,68.7)">
<!-- White INDIE Border -->
<path d="M 0,0 H 1 V 5 H 0 z M 2,0 H 6 V 5 H 5 V 1 H 3 V 5 H 2 z m 5,0 h 3 v 4 h 1 V 1 H 8 v 3 h 2 V 5 H 7 z m 5,0 h 1 v 5 h -1 z m 2,0 h 4 v 1 h -3 v 1 h 2 v 1 h -2 v 1 h 3 v 1 h -4 z" stroke="#ffffff" stroke-width="1" />
<!-- Black INDIE -->
<path d="M 0,0 H 1 V 5 H 0 z M 2,0 H 6 V 5 H 5 V 1 H 3 V 5 H 2 z m 5,0 h 3 v 4 h 1 V 1 H 8 v 3 h 2 V 5 H 7 z m 5,0 h 1 v 5 h -1 z m 2,0 h 4 v 1 h -3 v 1 h 2 v 1 h -2 v 1 h 3 v 1 h -4 z" fill="#000000" />
</g>
<!-- White DB -->
<path d="M 82.5,70.8 81.4,67 84,66.3 78.6,45.9 75.7,45.7 74.8,42.6 58.8,42 67.1,75.3 z M 70.8,69.1 65.1,46.4 l 10.2,0 5.3,20.1 -9.6,2.7 -0.2,-0.2 z m 24.4,-2.1 -0.8,-2.9 2,-0.4 -2.8,-9.3 -1.9,0.1 -0.6,-2.3 1.8,-0.2 -1.7,-5.7 -1.6,-0.1 -0.8,-2.6 -8.7,-0.5 7.1,26.3 z m -6.5,-2.4 -2.4,-9.1 4.8,-0.4 2.5,8.3 z m -3.5,-12.7 -1.4,-5.3 5.2,0.1 1.3,4.9 -5.1,0.2 z" fill="#ffffff" />
</svg>
