<?xml version="1.0" encoding="UTF-8"?>
<!DOCTYPE svg PUBLIC "-//W3C//DTD SVG 1.1//EN" "http://www.w3.org/Graphics/SVG/1.1/DTD/svg11.dtd">
<svg width="128px" height="128px" version="1.1" xmlns="http://www.w3.org/2000/svg">
<defs>
<radialGradient id="g1" gradientUnits="userSpaceOnUse" cx="20" cy="54" r="64">
<stop offset="0%" stop-color="#ffffff" />
<stop offset="95%" stop-color="#9bdee3" />
</radialGradient>
<linearGradient id="g2" x1="50%" y1="0%" x2="50%" y2="100%">
<stop offset="5%" stop-color="#ffacac" />
<stop offset="95%" stop-color="#ff3b3b" />
</linearGradient>
<linearGradient id="g3" x1="50%" y1="0%" x2="75%" y2="100%">
<stop offset="80%" stop-color="#ffffff" stop-opacity="0" />
<stop offset="100%" stop-color="#ffffff" stop-opacity="0.5" />
</linearGradient>
</defs>
<!-- Box background -->
<path d="M 10,16 H 118 V 121 H 10 z" fill="url(#g1)" />
<!-- Awning shadow -->
<path d="M 0,34 H 128 c 0,16 -26,16 -26,0 c 0,16 -25,16 -25,0 c 0,16 -26,16 -26,0 c 0,16 -25,16 -25,0 c 0,16 -26,16 -26,0 z" stroke="#000000" stroke-width="5" />
<!-- Top, darker part of awning -->
<path d="M 16,7 H 112 L 128,27 H 0 z" fill="#ff9797" />
<!-- Top, lighter part of awning -->
<path d="M 35,7 H 54 L 51,27 H 26 z M 93,7 H 74 L 77,27 H 102 z" fill="#ffc5c5" />
<!-- Awning, dark parts -->
<path d="M 0,27 H 128 V 34 c 0,16 -26,16 -26,0 h -25 c 0,16 -26,16 -26,0 h -25 c 0,16 -26,16 -26,0 z" fill="#ff5c5c" />
<!-- Awning, light parts -->
<path d="M 26,27 H 51 V 34 c 0,16 -25,16 -25,0 z M 77,27 H 102 V 34 c 0,16 -25,16 -25,0 z" fill="#ff9797" />
<!-- Controller shadow -->
<path d="M 76,66 c 1.2,-6.3 3.9,-8.1 12,-8 c 6.1,0.1 16.5,6 18,14.2	l 8,31.2 c 1.5,8 -2.9,13.9 -11,13.9 c -5.6,0 -12.7,-3.6 -17.5,-13.9 H 42.8 c -4.8,10.3 -11.9,13.9 -17.5,13.9 c -8.1,0 -12.5,-5.9 -11,-13.9 l 8,-31.2 c 1.5,-8.2 11.9,-14.1 18,-14.2 c 6.1,-0.1 8.8,1.7 12,8 z" fill="#000000" fill-opacity="0.5" />
<!-- Controller -->
<path d="M 76,61 c 1.2,-6.3 3.9,-8.1 12,-8 c 6.1,0.1 16.5,6 18,14.2	l 8,31.2 c 1.5,8 -2.9,13.9 -11,13.9 c -5.6,0 -12.7,-3.6 -17.5,-13.9 H 42.8 c -4.8,10.3 -11.9,13.9 -17.5,13.9 c -8.1,0 -12.5,-5.9 -11,-13.9 l 8,-31.2 c 1.5,-8.2 11.9,-14.1 18,-14.2 c 6.1,-0.1 8.8,1.7 12,8 z" fill="#000000" />
<!-- Arrow -->
<path d="M 64,64 L 83,84 H 75 V 94 H 53 V 84 H 45 z" fill="url(#g2)" />
<!-- Glossy -->
<path d="M 118,80 L 10,70 V 16 H 118 z" fill="url(#g3)" />
</svg>