<?xml version="1.0" encoding="UTF-8"?>
<!DOCTYPE svg PUBLIC "-//W3C//DTD SVG 1.1//EN" "http://www.w3.org/Graphics/SVG/1.1/DTD/svg11.dtd">
<svg width="128px" height="128px" version="1.1" xmlns="http://www.w3.org/2000/svg">
<path d="M 0 0 H 128 V 128 H 0" fill="#000000"/>
<path d="m 12.18992,51.912054 0,0.916166 c 4.916269,0.975202 7.546843,5.825623 7.546843,10.934883 0,5.188289 -2.630574,9.988738 -7.546843,10.94966 l 0,0.901389 c 5.505817,-0.970748 8.445979,-6.174958 8.445979,-11.851049 0,-5.646225 -2.954667,-10.886685 -8.445979,-11.851049 z m -3.8029011,0.01475 C 2.9192024,52.930972 0,58.146687 0,63.763079 0,69.433397 2.9249125,74.635762 8.3870189,75.614128 l 0,-0.916166 C 3.4672937,73.700989 0.8991356,68.923242 0.8991356,63.763079 c 0,-5.081564 2.5681581,-9.908413 7.4878833,-10.920106 l 0,-0.916166 z M 24.277133,83.15 H 23.386134 V 52.28975 h 0.890999 v 6.431367 h 0.08868 c 1.158436,-4.019309 4.4998,-6.967117 9.176956,-6.967117 6.0587,0 9.756653,5.04636 9.756653,11.968555 0,6.431839 -3.430511,12.058871 -9.756653,12.058871 -4.85545,0 -8.107196,-2.813989 -9.176961,-6.967589 h -0.08868 V 83.15 l 0,0 z m 18.13129,-19.427445 c 0,-5.89467 -2.940439,-11.075323 -8.865654,-11.075323 -5.879934,0 -9.265636,5.136204 -9.265636,11.075323 0,7.101409 3.697481,11.165166 9.265636,11.165166 6.281804,0 8.865654,-5.850222 8.865654,-11.165166 l 0,0 z m 4.456411,0.223663 0,0 c 0.08915,6.162782 2.539513,10.941503 9.043476,10.941503 4.722437,0 8.197287,-2.634775 8.95433,-7.591764 h 0.890999 c -0.62403,5.269549 -4.544143,8.485469 -9.756182,8.485469 -7.083183,0.08937 -10.02315,-5.181125 -10.02315,-12.013476 0,-7.637159 4.85545,-12.01395 10.02315,-12.01395 7.127994,0 10.290593,5.895144 10.023623,12.192218 H 46.864834 l 0,0 z m 18.264775,-0.893232 c 0.04528,-5.627032 -3.118261,-10.405754 -9.042533,-10.405754 -4.94554,0 -8.909991,3.97486 -9.222242,10.405754 h 18.264775 l 0,0 z M 69.587435,52.28975 h 0.890999 v 5.671954 h 0.08868 C 71.413771,54.433697 74.3094,51.754 78.808734,51.754 c 4.766775,0 8.152477,2.947808 8.152477,8.26228 V 75.245203 H 86.070212 V 60.150099 c 0,-5.314471 -3.385703,-7.502867 -7.261478,-7.502867 -5.479008,0 -8.3303,4.51061 -8.3303,9.601892 V 75.245203 H 69.587435 V 52.28975 l 0,0 z" fill="#ffffff"/>
<path d="m 107.14,66.65 h -9 v 8.6 h -6.9 V 52.66 h 17.42 v 5.79 H 98.18 v 2.82 h 8.99 v 5.38 z m 20.85,8.6 h -16.9 V 52.66 h 6.94 v 16.8 H 128 v 5.79 z" fill="#e31937"/>
</svg>
